Patient4_TMGait_0pt8_01_right_25_GRF.mot
version=1
nRows=45
nColumns=19
inDegrees=no
endheader
time	F1x	F1y	F1z	M1x	M1y	M1z	F2x	F2y	F2z	M2x	M2y	M2z	EC1x	EC1y	EC1z	EC2x	EC2y	EC2z
27.95	-13.2175	693.873	62.1583	-247.0808	-68.1157	787.7661	11.2916	0.2774	5.9358	-1.0778	-4.409	-5.1346	-0.0592	0.0182	-0.0073	-0.0462	0.0165	0.9585
27.9611	-9.1154	700.7677	60.5971	-248.161	-65.7408	790.3746	7.3512	1.1678	3.8177	-0.30809	-2.6727	-2.2704	-0.0592	0.0182	-0.0073	-0.0462	0.0165	0.9585
27.9723	-5.0516	708.7982	59.2912	-249.6973	-63.4354	793.7767	4.067	1.9367	2.0456	0.34989	-1.2334	0.13058	-0.0592	0.0182	-0.0073	-0.0462	0.0165	0.9585
27.9834	-1.1941	717.6669	58.3559	-251.6408	-61.3284	797.8477	1.5707	2.5723	0.71047	0.86714	-0.14871	2.0096	-0.0592	0.0182	-0.0073	-0.0462	0.0165	0.9585
27.9946	2.3945	726.927	57.793	-253.8432	-59.4569	802.2633	-0.1238	3.0642	-0.19305	1.2418	0.58456	3.3688	-0.0592	0.0182	-0.0073	-0.0462	0.0165	0.9585
28.0057	5.7175	735.9742	57.5913	-256.0769	-57.847	806.4454	-1.1759	3.4413	-0.73981	1.4944	1.0392	4.3235	-0.0592	0.0182	-0.0073	-0.0462	0.0165	0.9585
28.0169	8.81	744.1662	57.656	-258.0871	-56.4469	809.7464	-1.7218	3.6916	-1.0243	1.6415	1.2867	4.914	-0.0592	0.0182	-0.0073	-0.0462	0.0165	0.9585
28.028	11.7333	750.8973	57.958	-259.6314	-55.2534	811.5345	-1.958	3.817	-1.1428	1.6972	1.4174	5.2177	-0.0592	0.0182	-0.0073	-0.0462	0.0165	0.9585
28.0391	14.5383	755.7503	58.4215	-260.538	-54.2132	811.3556	-2.0018	3.7578	-1.1678	1.6546	1.4897	5.187	-0.0592	0.0182	-0.0073	-0.0462	0.0165	0.9585
28.0503	17.3049	758.514	59.042	-260.7144	-53.3241	808.9788	-1.9927	3.4634	-1.1649	1.4988	1.5686	4.7994	-0.0592	0.0182	-0.0073	-0.0462	0.0165	0.9585
28.0614	20.096	759.2633	59.7941	-260.1768	-52.5555	804.477	-1.9574	2.8089	-1.166	1.1899	1.6666	3.909	-0.0592	0.0182	-0.0073	-0.0462	0.0165	0.9585
28.0726	22.9959	758.3445	60.6744	-259.0442	-51.8803	798.1984	-1.9509	1.7108	-1.1824	0.6931	1.7877	2.4406	-0.0592	0.0182	-0.0073	-0.0462	0.0165	0.9585
28.0837	26.0775	756.3717	61.6831	-257.5395	-51.2725	790.764	-1.9146	0.071585	-1.2135	-0.027664	1.8975	0.26103	-0.0592	0.0182	-0.0073	-0.0462	0.0165	0.9585
28.0949	29.4121	754.1188	62.7964	-255.948	-50.6821	782.9493	-1.8158	-2.11	-1.2224	-0.974	1.9284	-2.6109	-0.0592	0.0182	-0.0073	-0.0462	0.0165	0.9585
28.106	33.0482	752.3628	64.0077	-254.5572	-50.0799	775.5554	-1.5265	-4.7574	-1.1878	-2.1061	1.7931	-6.0889	-0.0592	0.0182	-0.0073	-0.0462	0.0165	0.9585
28.1171	37.0091	751.706	65.265	-253.5944	-49.4016	769.1985	-0.94124	-7.5638	-1.0296	-3.2921	1.3459	-9.7603	-0.0592	0.0182	-0.0073	-0.0462	0.0165	0.9585
28.1283	41.2558	752.394	66.5276	-253.1574	-48.609	764.1673	0.13868	-9.9734	-0.66971	-4.2841	0.41403	-12.9088	-0.0592	0.0182	-0.0073	-0.0462	0.0165	0.9585
28.1394	45.7285	754.2944	67.7484	-253.2061	-47.6726	760.3574	1.8593	-10.9978	-0.0087449	-4.6553	-1.1859	-14.2653	-0.0592	0.0182	-0.0073	-0.0462	0.0165	0.9585
28.1506	50.3086	756.9021	68.8985	-253.5684	-46.6072	757.3159	4.3791	-9.2185	1.0526	-3.786	-3.6326	-12.021	-0.0592	0.0182	-0.0073	-0.0462	0.0165	0.9585
28.1617	54.9251	759.4517	69.931	-253.9816	-45.4064	754.3119	7.7047	-2.6696	2.5768	-0.8326	-7.0052	-3.6429	-0.0592	0.0182	-0.0073	-0.0462	0.0165	0.9585
28.1729	59.4844	760.9214	70.7648	-254.0996	-44.0423	750.372	11.6611	10.99	4.5743	5.2122	-11.2307	13.8685	-0.0592	0.0182	-0.0073	-0.0462	0.0165	0.9585
28.184	63.926	760.0546	71.2711	-253.5029	-42.4384	744.2993	15.7488	34.2886	6.9257	15.4181	-15.9258	43.7628	-0.0592	0.0182	-0.0073	-0.0462	0.0165	0.9585
28.1951	68.15	755.3318	71.2339	-251.6893	-40.4507	734.6928	19.0242	69.3744	9.3293	30.6825	-20.2703	88.7951	-0.0592	0.0182	-0.0073	-0.0462	0.0165	0.9585
28.2063	72.0166	744.9613	70.4029	-248.0691	-37.9188	719.9014	19.9393	117.3086	11.231	51.4056	-22.8842	150.3556	-0.0592	0.0182	-0.0073	-0.0462	0.0165	0.9585
28.2174	75.2728	727.0212	68.493	-242.0045	-34.6914	698.2231	16.6107	177.027	11.9329	77.0565	-22.0343	227.1081	-0.0592	0.0182	-0.0073	-0.0462	0.0165	0.9585
28.2286	77.5381	699.6439	65.2628	-232.8781	-30.7017	668.0236	7.8297	244.666	10.4157	105.8814	-15.9716	314.0979	-0.0592	0.0182	-0.0073	-0.0462	0.0165	0.9585
28.2397	78.2835	661.3931	60.5678	-220.2076	-26.0224	628.1127	-5.2999	313.8944	5.982	135.1157	-4.4261	403.0705	-0.0592	0.0182	-0.0073	-0.0462	0.0165	0.9585
28.2509	76.9618	611.6377	54.469	-203.7705	-20.9164	578.0385	-20.0351	378.3532	-1.0939	162.0826	10.9853	485.5091	-0.0592	0.0182	-0.0073	-0.0462	0.0165	0.9585
28.262	73.0978	551.0049	47.2405	-183.7453	-15.795	518.5261	-34.0934	435.1597	-9.8717	185.5732	28.0442	557.3665	-0.0592	0.0182	-0.0073	-0.0462	0.0165	0.9585
28.2731	66.4828	481.5016	39.3833	-160.7583	-11.1672	451.5168	-45.9745	484.5939	-19.105	205.7655	44.6116	618.7088	-0.0592	0.0182	-0.0073	-0.0462	0.0165	0.9585
28.2843	57.2725	406.3612	31.5191	-135.8445	-7.5049	380.0265	-54.8982	528.47	-28.002	223.4667	59.3515	671.847	-0.0592	0.0182	-0.0073	-0.0462	0.0165	0.9585
28.2954	46.0144	329.6824	24.2607	-110.3433	-5.1285	307.7751	-60.6387	568.5202	-35.7648	239.4649	71.2441	719.0732	-0.0592	0.0182	-0.0073	-0.0462	0.0165	0.9585
28.3066	33.6727	255.918	18.0294	-85.7361	-4.0498	238.7601	-63.4265	605.6008	-42.1271	254.1417	80.0584	761.6457	-0.0592	0.0182	-0.0073	-0.0462	0.0165	0.9585
28.3177	21.4841	189.1335	13.0388	-63.3984	-4.003	176.5818	-63.6424	639.6152	-47.1717	267.4655	86.0775	799.5868	-0.0592	0.0182	-0.0073	-0.0462	0.0165	0.9585
28.3289	10.7378	132.2505	9.2652	-44.3317	-4.4989	123.768	-61.8855	669.9537	-51.2116	279.1681	89.9531	832.3316	-0.0592	0.0182	-0.0073	-0.0462	0.0165	0.9585
28.34	2.3517	86.5216	6.5236	-28.9811	-5.048	81.3539	-58.689	695.9345	-54.7524	288.9473	92.5254	859.2285	-0.0592	0.0182	-0.0073	-0.0462	0.0165	0.9585
28.3511	-3.3247	51.8075	4.5118	-17.3209	-5.2621	49.1279	-54.6172	717.0809	-58.0392	296.6051	94.3588	879.9159	-0.0592	0.0182	-0.0073	-0.0462	0.0165	0.9585
28.3623	-6.4161	27.0231	3.0055	-8.9953	-4.9984	26.0886	-50.1212	733.0772	-61.2817	302.0333	95.8884	894.1799	-0.0592	0.0182	-0.0073	-0.0462	0.0165	0.9585
28.3734	-7.3391	10.5757	1.8438	-3.4756	-4.2733	10.7542	-45.6176	743.8048	-64.3186	305.2343	97.1177	902.0055	-0.0592	0.0182	-0.0073	-0.0462	0.0165	0.9585
28.3846	-6.7915	0.74252	0.94518	-0.18302	-3.2699	1.5472	-41.393	749.453	-66.9123	306.3563	97.8915	903.7077	-0.0592	0.0182	-0.0073	-0.0462	0.0165	0.9585
28.3957	-5.5235	-4.173	0.34388	1.4567	-2.2905	-3.0862	-37.5942	750.6839	-68.7482	305.7372	97.9192	900.1304	-0.0592	0.0182	-0.0073	-0.0462	0.0165	0.9585
28.4069	-4.047	-5.7685	-0.019867	1.9806	-1.461	-4.6306	-34.2341	748.4304	-69.6369	303.8238	97.0027	892.4263	-0.0592	0.0182	-0.0073	-0.0462	0.0165	0.9585
28.418	-2.6658	-5.3731	-0.19186	1.8379	-0.84246	-4.316	-31.2603	743.829	-69.5696	301.1198	95.128	881.9706	-0.0592	0.0182	-0.0073	-0.0462	0.0165	0.9585
28.4291	-1.5426	-3.9709	-0.24384	1.3603	-0.42024	-3.0586	-28.6043	737.9529	-68.7228	298.0782	92.4925	870.0408	-0.0592	0.0182	-0.0073	-0.0462	0.0165	0.9585
28.4403	-0.717	-2.2406	-0.22084	0.77557	-0.16339	-1.4903	-26.2127	731.7058	-67.3887	295.0644	89.4225	857.6991	-0.0592	0.0182	-0.0073	-0.0462	0.0165	0.9585
